<svg id="Capa_1" enable-background="new 0 0 512 512" height="512" viewBox="0 0 512 512" width="512" xmlns="http://www.w3.org/2000/svg"><g><path d="m96.278 323.299c-3.555 18.323-3.478 37.294.482 55.648 19.01 88.112 77.382 133.053 159.234 133.053 84.349 0 124.486-45.747 143.304-84.124 14.604-29.781 16.827-63.339 7.886-94.839 5.693-5.262 11.047-10.291 16.204-15.224 46.023-44.045 88.612-94.656 88.612-166.125 0-83.313-52.832-151.688-136-151.688-52.177 0-97.536 29.977-120 73.73-22.464-43.753-67.823-73.73-120-73.73-83.135 0-136 68.333-136 151.688 0 68.406 36.654 116.995 96.278 171.611zm114.722 118.078c0-11.381 3.299-18.915 10.084-23.032 13.221-8.021 22.363-20.816 25.745-36.028 1.401-6.304 1.71-12.77.979-19.11 30.54 7.891 53.192 36.021 53.192 69.416 0 26.649-21.224 48.421-47.655 49.333-27.008-.36-42.345-20.148-42.345-40.579zm161.362-26.709c-11.616 23.69-28.082 41.185-49.232 52.397 5.041-10.424 7.87-22.109 7.87-34.443 0-56.034-45.14-101.622-100.623-101.622h-32.404l15.547 23.32c4.194 6.292 5.661 14.124 4.024 21.487-1.59 7.153-5.859 13.151-12.021 16.889-11.187 6.788-24.523 20.743-24.523 48.681 0 8.202 1.421 16.076 4.003 23.406-29.708-17.498-49.45-48.278-58.918-92.162-6.188-28.677-.271-59.317 16.23-84.065l11.413-17.116c6.315 17.231 22.88 29.56 42.272 29.56 24.813 0 45-20.187 45-45 0-41.32 33.59-74.943 74.896-75-6.065 11.338-9.049 22.993-8.904 34.865.29 23.684 12.718 46.898 37.994 70.969 36.72 34.969 47.722 86.342 27.376 127.834zm-236.362-384.668c57.897 0 105 47.551 105 106h30c0-58.449 47.103-106 105-106 72.829 0 106 63.08 106 121.688 0 56.857-31.723 98.866-79.352 144.448-2.478 2.37-5.006 4.766-7.596 7.199-7.486-13.799-17.315-26.741-29.377-38.228-19.117-18.205-28.5-34.432-28.686-49.61-.156-12.814 6.26-25.535 19.616-38.892l25.608-25.605h-66.213c-57.897 0-105 47.103-105 105 0 8.271-6.729 15-15 15s-15-6.729-15-15v-79.532l-63.645 95.445c-4.214 6.32-7.875 12.949-10.986 19.798-48.632-46.109-76.369-85.88-76.369-140.023 0-58.608 33.171-121.688 106-121.688z"/></g></svg>