<svg id="Capa_1" enable-background="new 0 0 511.999 511.999" height="512" viewBox="0 0 511.999 511.999" width="512" xmlns="http://www.w3.org/2000/svg"><g><path d="m406.999 301.998c-8.638 0-17.032 1.056-25.069 3.032l-49.032-49.032 174.708-174.707c2.813-2.813 4.393-6.628 4.393-10.606 0-3.979-1.58-7.794-4.393-10.606l-55.686-55.685c-5.857-5.857-15.355-5.857-21.213 0l-174.707 174.707-49.031-49.03c1.977-8.037 3.032-16.431 3.032-25.068 0-57.897-47.103-105.001-105-105.001-12.663 0-25.066 2.25-36.866 6.687-4.772 1.794-8.305 5.889-9.382 10.871s.451 10.171 4.055 13.775l30.187 30.186-4.183 27.289-27.291 4.182-30.186-30.186c-3.604-3.604-8.795-5.129-13.775-4.055-4.983 1.076-9.078 4.61-10.872 9.381-4.438 11.8-6.688 24.205-6.688 36.87 0 57.897 47.103 105 105 105 8.639 0 17.034-1.056 25.071-3.032l49.03 49.029-131.556 131.556c-1.325 1.325-2.391 2.887-3.141 4.604l-43.151 98.838c-2.469 5.655-1.223 12.245 3.141 16.608 2.872 2.873 6.709 4.395 10.61 4.393 2.024 0 4.066-.409 5.999-1.253l98.836-43.151c1.717-.75 3.279-1.815 4.604-3.141l131.557-131.556 49.031 49.031c-1.977 8.037-3.032 16.433-3.032 25.07 0 57.897 47.103 105 105 105 12.664 0 25.068-2.25 36.868-6.688 4.772-1.794 8.305-5.889 9.381-10.871 1.077-4.983-.45-10.172-4.055-13.775l-30.188-30.186 4.182-27.289 27.292-4.182 30.186 30.186c3.604 3.604 8.791 5.133 13.775 4.055 4.983-1.076 9.077-4.61 10.871-9.381 4.438-11.8 6.688-24.204 6.688-36.868 0-57.898-47.102-105.001-105-105.001zm34.315-265.785 34.473 34.472-31.825 31.825-34.472-34.472zm-53.037 53.037 34.472 34.473-111.064 111.063-34.472-34.472zm-358.276 15.752c0-.366.002-.73.008-1.097l15.67 15.67c3.376 3.376 8.159 4.944 12.878 4.221l45.686-7.001c6.479-.993 11.562-6.076 12.555-12.555l7.001-45.684c.724-4.721-.844-9.503-4.22-12.879l-15.669-15.668c.363-.005.728-.008 1.092-.008 41.355 0 75 33.646 75 75.001 0 41.356-33.645 75-75 75-41.356 0-75.001-33.644-75.001-75zm33.097 319.319 24.579 24.58-43.627 19.047zm50.738 8.313-34.472-34.473 120.95-120.949 34.473 34.472zm46.125-238.201c14.003-8.638 25.835-20.469 34.472-34.473l157.607 157.607c-14.003 8.638-25.835 20.469-34.472 34.473zm322.031 213.66-15.67-15.67c-3.377-3.376-8.161-4.945-12.879-4.221l-45.686 7.001c-6.478.993-11.561 6.077-12.555 12.555l-7.001 45.684c-.723 4.721.844 9.503 4.221 12.879l15.671 15.67c-.364.005-.729.008-1.094.008-41.355 0-75-33.645-75-75s33.645-75 75-75 75 33.645 75 75c0 .365-.003.73-.007 1.094z"/></g></svg>